<?xml version="1.0" encoding="UTF-8"?>
<!-- Generator: Adobe Illustrator 24.3.0, SVG Export Plug-In . SVG Version: 6.00 Build 0)  -->
<svg version="1.1" id="Layer_1" xmlns="http://www.w3.org/2000/svg" xmlns:xlink="http://www.w3.org/1999/xlink" x="0px" y="0px" viewBox="0 0 258 114.4" style="enable-background:new 0 0 258 114.4;" xml:space="preserve">
<style type="text/css">
	.st0{enable-background:new    ;}
	.st1{fill:#231F20;}
</style>
<g>
	<g class="st0">
		<path class="st1" d="M23.5,87.3c-0.5-0.4-0.8-1.1-0.8-2V72.2c-0.9-0.6-2.5-1.1-4.9-1.6c-2.4-0.5-4.7-0.8-6.8-0.9    c-0.7,1.4-1.3,3.1-1.6,5.1l-0.4,2c-0.1,0.5-0.3,1.5-0.6,3.1c-0.3,1.6-0.7,3-1.1,4.2c-0.4,1.2-0.8,2.1-1.2,2.8c-2.5,0-4-0.7-4.4-2    c0.7-1.1,1.6-4.2,2.5-9.4l3.3-18.3c1.5-8.7,2.8-16.1,4-22.2c1.2-6.1,2.6-11.3,4-15.4c1.5-4.6,3-6.9,4.4-6.9s2.5,0.3,3.2,0.8    c0,2.7,0.6,9.1,1.9,19.3c1.3,10,2,16.8,2,20.5c0,3.5,0.4,8.6,1.1,15.2c0.7,6.7,1,12.1,1,16.1c0,2.3-1.1,3.4-3.3,3.4    C24.7,87.9,24,87.7,23.5,87.3z M22.6,66.1c-0.2-2.9-0.5-6.6-1-10.9c-1.5-15.1-2.3-24.3-2.3-27.7v-0.8c-0.7,0.7-1.6,3.7-2.8,9    c-1.2,5.4-2.2,11.1-3.2,17.2c-1,6.1-1.5,10.2-1.6,12.2c2.8,0.8,5.8,1.2,8.9,1.2C21.1,66.4,21.8,66.3,22.6,66.1z"/>
		<path class="st1" d="M59.8,84.6c-2.6-5-5.2-13.2-7.7-24.7c-0.7-3.1-1.3-6-1.8-8.7c-2.4,4.8-3.6,10.6-3.6,17.4v18.5    c0,1.5-0.7,2.3-2,2.3c-1,0-1.8-0.3-2.5-0.8c-0.6-0.6-1-1.4-1-2.4V55.9c0-2.9,0.3-8.3,1-16.2c0.7-6.9,1-12.3,1-16.2    c0.5-1.3,1.5-1.9,2.9-1.9c0.9,0,1.6,0.3,2.2,0.9c0.6,0.6,0.9,1.3,0.9,2.2V25c-0.9,1.5-1.3,7.5-1.3,18.2v3.6l3.7-7.3    c2.3-4.7,4.4-8.8,6.4-12.2c1.9-3.3,3.2-5,4.1-5c1.1,0,2,0.2,2.8,0.7c0.8,0.5,1.1,1.1,1.1,2l-2.4,4c-5,8.1-7.8,12.7-8.4,14    c0,1.1,0,2.1-0.1,3l-0.1,3c0,2.9,1.1,8.2,3.4,16.1c2.3,7.8,4.2,13,5.8,15.5l1.3,1.8c1.3,1.7,1.9,3.3,1.9,4.6    c0,0.7-0.3,1.4-0.9,1.9c-0.6,0.5-1.2,0.8-1.9,0.8C63.2,89.6,61.5,87.9,59.8,84.6z"/>
		<path class="st1" d="M72.4,84.8c0-1.6,1-2.4,3.1-2.4h1.1l1,0.1c0.5,0,0.9-0.2,1.1-0.5c0.2-0.3,0.3-0.9,0.3-1.8    c0-1.1-0.1-2.9-0.2-5.3c-0.2-1.6-0.4-4.5-0.7-8.6c-0.6-10.2-0.9-17.9-0.9-23.1c0-1.9,0-3.6,0.1-5.1l0.1-5.1c0-2.2-0.1-4-0.3-5.5    c-1.1,0.3-1.8,0.4-2.3,0.4c-1.6,0-2.4-0.8-2.4-2.4c0-0.8,0.5-1.5,1.5-2.1s2.3-1,3.8-1.3c2.7-0.5,5-0.8,7.1-0.8    c0.8,0,1.5,0.3,2.1,0.8c0.6,0.6,0.9,1.2,0.9,2c0,0.7-0.2,1.4-0.7,1.9c-0.4,0.5-1,0.8-1.6,0.8c-0.4,0-0.7,0-1-0.1h-0.8    c-0.7,0-1.1,0.2-1.5,0.5c-0.3,0.3-0.4,0.8-0.4,1.7c0,6.5,0.4,16.2,1.2,29.2c0.1,2.4,0.4,5.9,0.8,10.6c0.3,3.1,0.5,6.2,0.5,9.4v3.8    c0.4-0.1,1.1-0.1,2-0.1c2.8,0,4.2,1.2,4.2,3.5v0.6l-2.5,1.7c-0.1,0-0.3,0-0.6,0.1c-0.4,0-1,0-2,0c-2.1,0.1-3.5,0.2-4.1,0.2    C75.3,87.8,72.4,86.8,72.4,84.8z"/>
		<path class="st1" d="M122.2,88.4c-0.5-0.5-0.8-1-0.8-1.7l0.2-9.7c0.2-4.3,0.3-7.6,0.3-9.7c0-1.9-0.3-4.8-0.9-8.6    c-0.7-3.7-1-6.6-1-8.7c0-2.5-0.4-5.4-1.1-8.7c-0.7-3.3-1.7-6.4-2.8-9.4c-1.1-2.9-2-6-2.7-9.2c-0.7-3.3-1.1-6.2-1.1-8.7    c0-0.5,0.3-0.9,0.8-1.2c0.5-0.3,1.1-0.5,1.7-0.5c0.7,0,1.4,0.8,2.1,2.3c0.8,1.7,1.6,4.2,2.3,7.3c0.7,3.1,1.2,5,1.3,5.6l1.3,6.9    l1,4.4c0.2-1.1,0.4-2.5,0.5-4.2c0.4-5.5,0.9-10.1,1.5-13.8c0.5-2.5,1-4.5,1.6-5.8c0.7-1.5,1.5-2.2,2.4-2.2c1.8,0,2.7,0.3,2.7,1    c0,3.8-0.8,9.4-2.4,16.8c-1.6,7.4-2.4,13-2.4,16.9l-0.2,1.6c-0.1,1-0.2,1.6-0.1,1.8v1.6c0,2.9,0.1,7.3,0.3,13.2L127,79l0.2,2.3    l0.2,2.4v2.5c0,0.8-0.3,1.5-1,2c-0.7,0.6-1.5,0.9-2.4,0.9C123.3,89.1,122.7,88.9,122.2,88.4z"/>
		<path class="st1" d="M149.9,88.4c-1.3-0.7-2.3-1.7-3.1-3c-1.6-2.8-2.6-6-3.1-9.5c-0.5-3.1-0.7-6.7-0.7-11    c-0.2-7.2-0.3-16-0.3-26.4l-0.1-7.7c-0.1-0.4-0.1-1.1-0.1-2c-0.1-2.5-0.2-4.1-0.2-4.6c0.6-1.4,1.3-2.1,2.1-2.1    c0.8,0,1.5,0.6,2.1,1.8c0.6,1.2,1,2.5,1,3.9v27.2c0,2.7,0.2,6.2,0.7,10.6c0.5,5.5,0.7,9,0.7,10.6c0,4.9,2.1,7.4,6.3,7.4    c4.8,0,7.2-17.9,7.2-53.8v-5.6v-0.9c-0.1-0.2-0.1-0.5-0.1-0.8c0-0.8,0.2-1.4,0.5-1.8c0.4-0.4,1.1-0.5,2.2-0.5c0.9,0,1.5,0.2,2,0.8    s0.8,1.1,1,1.8c0.1,0.4,0.1,1.2,0.1,2.3c0,1.1-0.1,2.8-0.3,5.1c-0.3,1.9-0.4,3.6-0.4,5c0,1.5-0.1,2.9-0.2,4.1l-0.2,4.2v0.8    c0.1,0.3,0.1,0.6,0.1,0.9c0,29.6-4.3,44.4-12.9,44.4C152.6,89.4,151.2,89.1,149.9,88.4z"/>
		<path class="st1" d="M195.9,88.1c-0.7-0.5-1.1-1.3-1.1-2.6c0-2-0.3-5.4-1-10.2l-0.4-2.1l-9.9-1.5c-0.4,1.5-1,4.6-1.7,9.3    c-0.4,3.3-1,5.4-1.9,6.5c-0.5,0.6-1.1,0.9-2,0.9c-0.8,0-1.5-0.2-2.2-0.8c-0.7-0.5-1-1.1-1-1.8l0.2-0.5l0.1-0.4    c4.4-17.1,7.7-34,10-50.7c0-0.3,0-0.7,0.1-1.3c0.1-0.6,0.1-1.5,0.2-2.8c0.2-2.5,0.4-4.4,0.7-5.9c0.2-1.5,0.6-2.6,1.2-3.3h3.4    c0.9,0,1.7,0.2,2.4,0.7s1,1,1,1.8c0,5.1,0.7,12.6,2.1,22.6c1.3,10.3,2,17.5,2,21.6c0,0.4,0.2,1.4,0.5,3.1c0.3,1.5,0.5,2.5,0.5,3    c0,0.5,0.3,2.5,1,6c0.6,3.2,0.9,5.3,0.9,6.2V86c0,1.5-0.5,2.4-1.6,2.8C197.8,88.8,196.6,88.6,195.9,88.1z M192.4,65.9    c0-6-0.5-13.7-1.6-23l-1-10.4C186.9,48.2,185,60,183.9,68c1,0.7,3.9,1.2,8.8,1.6C192.5,68.6,192.4,67.4,192.4,65.9z"/>
		<path class="st1" d="M208.2,88c-0.8-0.7-1.3-1.5-1.4-2.6l1.1-1.7c0.4,0,1,0.1,1.9,0.4c1,0.2,1.8,0.3,2.3,0.3    c1.2,0,2.3-0.5,3.2-1.6c1-1.1,1.7-2.5,2.1-4.2c0.9-3.2,1.3-6.1,1.3-8.6c0-4.4-1.4-9-4.2-13.9l-1.1-1.9c-1.3-2.2-2.3-4.2-3.2-5.9    c-0.9-1.7-1.6-3.6-2.2-5.6c-0.8-2.6-1.2-5.2-1.2-7.8c0-2.9,0.7-6,2-9.2c0.7-1.5,1.6-2.8,2.8-3.8c1.2-1,2.6-1.5,4.2-1.5    c1.2,0,2.3,0.4,3.3,1.2c1,0.8,1.6,1.7,1.6,2.8c0,0.6-0.2,1.1-0.7,1.4c-0.5,0.3-1,0.5-1.7,0.5c-0.7,0-1.4-0.2-2.1-0.6    c-1.5,0.1-2.6,1.4-3.5,3.9c-0.7,2.3-1.1,4.3-1.1,5.8c0,1.9,0.3,3.9,0.9,5.8c0.6,2,1.4,3.8,2.3,5.4l2.2,4l3.5,6.6    c0.9,1.9,1.7,4,2.2,6.5c0.6,2.5,0.8,5,0.8,7.5c0,4.1-0.9,7.9-2.8,11.6c-0.9,1.9-2.2,3.4-4,4.5s-3.6,1.7-5.6,1.7v0.3    C210.1,89.1,209.1,88.7,208.2,88z"/>
		<path class="st1" d="M250.5,88.1c-0.7-0.5-1.1-1.3-1.1-2.6c0-2-0.3-5.4-1-10.2l-0.4-2.1l-9.9-1.5c-0.4,1.5-1,4.6-1.7,9.3    c-0.4,3.3-1,5.4-1.9,6.5c-0.5,0.6-1.1,0.9-2,0.9c-0.8,0-1.5-0.2-2.2-0.8c-0.7-0.5-1-1.1-1-1.8l0.2-0.5l0.1-0.4    c4.4-17.1,7.7-34,10-50.7c0-0.3,0-0.7,0.1-1.3c0.1-0.6,0.1-1.5,0.2-2.8c0.2-2.5,0.4-4.4,0.7-5.9c0.2-1.5,0.6-2.6,1.1-3.3h3.4    c0.9,0,1.7,0.2,2.4,0.7c0.7,0.4,1,1,1,1.8c0,5.1,0.7,12.6,2.1,22.6c1.3,10.3,2,17.5,2,21.6c0,0.4,0.2,1.4,0.5,3.1    c0.3,1.5,0.5,2.5,0.5,3c0,0.5,0.3,2.5,1,6c0.6,3.2,0.9,5.3,0.9,6.2V86c0,1.5-0.5,2.4-1.6,2.8C252.4,88.8,251.2,88.6,250.5,88.1z     M247,65.9c0-6-0.5-13.7-1.6-23l-1-10.4c-2.9,15.7-4.8,27.5-5.9,35.5c1,0.7,3.9,1.2,8.8,1.6C247.1,68.6,247,67.4,247,65.9z"/>
	</g>
</g>
</svg>